# xmcd
#
# Track frame offsets:
#	150
#	15521
#	30890
#	49644
#	68309
#	84368
#	97250
#	108503
#	120813
#	133541
#	147398
#	166496
#
# Disc length: 2365 seconds
#
# Revision: 1
# Processed by: cddbd v1.5.1PL0 Copyright (c) Steve Scherf et al.
# Submitted via: audiograbber 1.83.01
#
DISCID=8b093b0c
DTITLE=Tina Turner - Soul  Deep
DYEAR=2004
DGENRE=Rock
TTITLE0=Something's Got A Hold On Me
TTITLE1=If This Was Our Last Time
TTITLE2=You Took A Trip
TTITLE3=Lovin' Him Was Easier
TTITLE4=Lay It Down
TTITLE5=Freedom To Stay
TTITLE6=Soul Deep
TTITLE7=I Know
TTITLE8=Medley: Soul Deep - You Ain't Woman Enough To Take My Man
TTITLE9=I'm Looking For My Mind
TTITLE10=Ode To Billy Joe
TTITLE11=Ain't That A Shame
EXTD=
EXTT0=
EXTT1=
EXTT2=
EXTT3=
EXTT4=
EXTT5=
EXTT6=
EXTT7=
EXTT8=
EXTT9=
EXTT10=
EXTT11=
PLAYORDER=
